<?xml version="1.0" standalone="no"?>
<!DOCTYPE svg PUBLIC "-//W3C//DTD SVG 20010904//EN"
 "http://www.w3.org/TR/2001/REC-SVG-20010904/DTD/svg10.dtd">
<svg version="1.0" xmlns="http://www.w3.org/2000/svg"
 width="455.000000pt" height="455.000000pt" viewBox="0 0 455.000000 455.000000"
 preserveAspectRatio="xMidYMid meet">
<metadata>
Created by potrace 1.14, written by Peter Selinger 2001-2017
</metadata>
<g transform="translate(0.000000,455.000000) scale(0.100000,-0.100000)"
fill="#000000" stroke="none">
<path d="M100 2275 l0 -2165 2175 0 2175 0 0 2165 0 2165 -2175 0 -2175 0 0
-2165z m825 1777 c192 -102 387 -235 421 -287 45 -68 18 -162 -58 -205 -52
-29 -106 -23 -162 19 -108 82 -209 152 -296 206 -52 32 -112 69 -132 82 -97
61 -94 151 7 214 54 34 117 25 220 -29z m3003 -82 c97 -59 92 -191 -9 -242
-31 -16 -73 -18 -436 -18 l-402 0 14 -26 c15 -29 16 -26 -55 -246 -27 -86 -36
-126 -29 -135 8 -9 85 -13 297 -15 285 -3 287 -3 342 -29 66 -31 132 -95 168
-164 l27 -50 0 -445 0 -445 -24 -50 c-35 -71 -118 -149 -186 -174 -51 -19 -77
-21 -285 -21 -125 0 -235 -3 -244 -6 -14 -6 -16 -63 -16 -543 0 -296 -4 -562
-10 -595 -13 -78 -38 -125 -87 -160 -59 -41 -137 -57 -324 -63 -160 -5 -168
-5 -207 17 -46 26 -73 59 -92 112 -12 33 -12 42 3 73 23 49 53 58 172 51 121
-7 233 4 246 25 12 19 12 1049 -1 1069 -8 12 -49 16 -237 20 -223 5 -229 6
-278 32 -67 36 -128 101 -162 173 l-28 60 0 425 0 425 27 57 c35 76 98 142
167 175 54 27 64 28 241 33 183 5 185 5 196 29 18 35 78 356 71 375 -6 14 -53
16 -455 16 -335 0 -451 -3 -460 -12 -9 -9 -12 -144 -12 -545 0 -559 -8 -759
-41 -1058 -40 -369 -91 -621 -175 -874 -78 -234 -224 -529 -285 -573 -91 -68
-229 7 -229 125 0 20 13 57 30 88 203 360 302 688 359 1185 37 317 42 428 47
1054 6 668 6 668 63 747 40 55 105 104 165 125 47 16 124 17 1076 18 1005 0
1026 0 1058 -20z m-3198 -970 c197 -97 403 -227 425 -269 26 -52 27 -93 3
-140 -32 -62 -68 -86 -128 -86 -39 0 -58 7 -97 34 -120 86 -227 154 -343 218
-104 58 -128 76 -143 106 -32 64 0 133 77 168 62 28 94 23 206 -31z m460
-1036 c47 -42 76 -123 64 -177 -15 -71 -311 -750 -430 -988 -56 -113 -80 -138
-145 -146 -54 -8 -120 32 -148 90 -41 84 -36 100 128 431 137 277 208 430 321
690 33 75 50 103 74 117 49 30 90 25 136 -17z m2382 -264 c21 -6 51 -23 68
-37 83 -70 380 -576 380 -648 0 -78 -76 -155 -153 -155 -66 0 -95 33 -177 195
-78 155 -148 276 -233 404 -56 84 -68 132 -43 179 16 32 39 48 85 63 35 10 32
10 73 -1z m-1210 -40 c51 -15 88 -61 88 -111 0 -71 -190 -421 -326 -602 -73
-96 -105 -127 -147 -138 -97 -26 -197 69 -173 164 3 13 29 53 57 88 83 102
195 278 259 406 64 127 105 178 154 192 42 12 46 12 88 1z"/>
<path d="M2366 3044 c-13 -13 -16 -41 -16 -155 0 -78 5 -149 10 -160 10 -18
28 -19 600 -19 572 0 590 1 600 19 5 11 10 82 10 160 0 114 -3 142 -16 155
-14 14 -81 16 -594 16 -513 0 -580 -2 -594 -16z"/>
<path d="M2362 2478 c-8 -8 -12 -59 -12 -163 0 -104 4 -155 12 -163 17 -17
1179 -17 1196 0 15 15 17 291 2 319 -10 18 -28 19 -598 19 -444 0 -591 -3
-600 -12z"/>
</g>
</svg>
